<?xml version="1.0" encoding="UTF-8" standalone="no"?>
<!DOCTYPE svg PUBLIC "-//W3C//DTD SVG 1.1//EN"
 "http://www.w3.org/Graphics/SVG/1.1/DTD/svg11.dtd">
<!-- Generated by graphviz version 2.38.0 (20140413.2041)
 -->
<!-- Title: G Pages: 1 -->
<svg width="378pt" height="96pt"
 viewBox="0.00 0.00 377.99 96.00" xmlns="http://www.w3.org/2000/svg" xmlns:xlink="http://www.w3.org/1999/xlink">
<g id="graph0" class="graph" transform="scale(1 1) rotate(0) translate(4 92)">
<title>G</title>
<polygon fill="white" stroke="none" points="-4,4 -4,-92 373.99,-92 373.99,4 -4,4"/>
<g id="clust1" class="cluster"><title>cluster_Global</title>
<path fill="none" stroke="gray" d="M192.99,-8C192.99,-8 349.99,-8 349.99,-8 355.99,-8 361.99,-14 361.99,-20 361.99,-20 361.99,-68 361.99,-68 361.99,-74 355.99,-80 349.99,-80 349.99,-80 192.99,-80 192.99,-80 186.99,-80 180.99,-74 180.99,-68 180.99,-68 180.99,-20 180.99,-20 180.99,-14 186.99,-8 192.99,-8"/>
<text text-anchor="middle" x="271.49" y="-67.2" font-family="Times New Roman,serif" font-size="11.00" fill="gray">Global</text>
</g>
<!-- \\WP_Product_List_Widget -->
<g id="node1" class="node"><title>\\WP_Product_List_Widget</title>
<polygon fill="none" stroke="black" points="353.99,-52 188.99,-52 188.99,-16 353.99,-16 353.99,-52"/>
<text text-anchor="middle" x="271.49" y="-31.2" font-family="Courier,monospace" font-size="11.00">WP_Product_List_Widget</text>
</g>
<!-- \\WP_Widget -->
<g id="node2" class="node"><title>\\WP_Widget</title>
<ellipse fill="none" stroke="black" cx="58.4948" cy="-34" rx="58.4896" ry="18"/>
<text text-anchor="middle" x="58.4948" y="-30.3" font-family="Times New Roman,serif" font-size="14.00" fill="gray">\WP_Widget</text>
</g>
<!-- \\WP_Product_List_Widget&#45;&gt;\\WP_Widget -->
<g id="edge1" class="edge"><title>\\WP_Product_List_Widget&#45;&gt;\\WP_Widget</title>
<path fill="none" stroke="black" d="M188.914,-34C168.472,-34 146.766,-34 127.088,-34"/>
<polygon fill="none" stroke="black" points="127.001,-30.5001 117.001,-34 127.001,-37.5001 127.001,-30.5001"/>
</g>
</g>
</svg>
